<mxfile host="app.diagrams.net" modified="2024-05-01T16:36:44.153Z" agent="Mozilla/5.0 (Windows NT 10.0; Win64; x64) AppleWebKit/537.36 (KHTML, like Gecko) Chrome/124.0.0.0 Safari/537.36" version="24.3.1" etag="FIM8C3vBn1c-dZM4oxDX" type="github">
  <diagram name="Page-1" id="ZKiFQZKTQUpWc3FK3tC5">
    <mxGraphModel>
      <root>
        <mxCell id="0" />
        <mxCell id="1" parent="0" />
      </root>
    </mxGraphModel>
  </diagram>
</mxfile>
